<svg width="201" height="224" viewBox="0 0 201 224" fill="none" xmlns="http://www.w3.org/2000/svg">
<path fill-rule="evenodd" clip-rule="evenodd" d="M86.5062 114.743C87.6559 114.745 89.0059 114.885 90.2171 115.299C91.5754 115.763 92.5207 116.481 93.2132 117.174C93.5205 117.481 93.7781 117.785 93.9212 117.952C94.0964 118.157 94.1427 118.208 94.1722 118.237C94.236 118.3 94.2569 118.313 94.5443 118.568C94.7731 118.771 95.1198 119.087 95.4769 119.504C96.2611 120.419 96.8715 121.553 97.2337 123.04C97.5577 124.37 97.6876 125.98 97.6136 127.489C97.5445 128.896 97.2728 130.825 96.3284 132.43C93.9991 136.385 89.6449 135.895 88.22 135.653C86.1916 135.308 84.7268 134.581 83.3821 133.567C83.0007 133.28 82.2178 132.707 81.5335 131.988C80.825 131.244 79.9419 130.062 79.6448 128.415C79.5648 127.971 79.5003 127.558 79.4437 127.177C78.3131 126.344 77.6548 124.942 77.8441 123.45C78.0632 121.723 78.3351 120.015 78.9691 118.652C79.3342 117.868 79.8582 117.097 80.6263 116.453C81.3788 115.822 82.1685 115.477 82.8167 115.266L83.2718 115.133C84.3459 114.846 85.4948 114.741 86.5062 114.743ZM86.9612 122.763C87.0768 123.134 87.1402 123.528 87.1419 123.936L87.1458 124.027C87.1502 124.131 87.1597 124.314 87.1819 124.571C87.2208 125.02 87.2991 125.697 87.4485 126.588C87.4954 126.63 87.5541 126.679 87.6263 126.738C87.7872 126.869 87.9561 126.997 88.1976 127.179C88.6353 127.508 88.9277 127.658 89.5589 127.766C89.5872 127.569 89.6112 127.345 89.6234 127.097C89.6657 126.234 89.5753 125.406 89.4603 124.933C89.4261 124.793 89.3959 124.718 89.3831 124.688C89.3797 124.685 89.3758 124.681 89.3714 124.677C89.3448 124.651 89.3054 124.615 89.2366 124.554C89.2018 124.523 89.1654 124.491 89.1185 124.45C89.0745 124.412 89.0187 124.363 88.9622 124.312C88.8492 124.212 88.7009 124.078 88.5433 123.922C88.2371 123.619 87.9763 123.31 87.8392 123.149C87.694 122.979 87.6269 122.906 87.5784 122.855C87.4699 122.827 87.2576 122.786 86.9612 122.763Z" fill="inherit"/>
<path fill-rule="evenodd" clip-rule="evenodd" d="M62.7327 77.7538C64.764 77.1819 67.2318 77.1589 69.2093 77.2284C71.2585 77.3004 73.403 77.508 74.7396 77.6083C76.2806 77.7239 77.7362 77.9189 79.0218 78.4266C80.524 79.02 81.4946 79.9127 82.2493 80.8475C83.4719 82.3621 84.552 84.5662 85.1566 85.7753C85.4784 86.4191 85.8939 87.2355 86.223 88.2597C86.5587 89.3048 86.7674 90.4343 86.8987 91.8436C87.1419 94.4548 87.1708 98.8306 86.6292 101.613C86.3265 103.168 85.7822 104.568 84.7972 105.71C83.8261 106.836 82.6935 107.362 82.2835 107.567C79.6958 108.861 75.8862 109.596 72.4749 110.143C68.6484 110.757 65.3125 111.137 62.1243 111.7C60.317 112.019 58.1041 112.002 56.3528 111.716C54.3 111.38 52.8332 110.65 51.4925 109.649C50.4653 108.883 49.4781 107.932 48.6536 106.93C47.8631 106.622 47.0247 106.197 46.2191 105.586C44.8008 104.51 43.6864 103.018 42.9974 101.076C42.3658 99.2958 42.118 97.2321 42.0579 95.4266C41.9968 93.5869 42.1216 91.6965 42.4095 90.1513C42.5771 89.2518 42.8301 88.2884 43.2747 87.3632C43.2386 87.1473 43.2191 86.9252 43.2191 86.6991C43.2195 84.4904 45.0102 82.6991 47.2191 82.6991H47.2386C47.2653 82.6988 47.3122 82.6986 47.3782 82.6972C47.511 82.6943 47.7225 82.6881 48.0091 82.6757C48.5829 82.6508 49.4588 82.5999 50.6116 82.496C51.8256 82.3865 53.0483 81.888 55.097 80.8915C57.0223 79.955 59.5568 78.6481 62.7327 77.7538ZM68.929 85.2235C67.5094 85.1736 66.382 85.2108 65.5941 85.3182C65.6944 85.4844 65.7904 85.6509 65.8773 85.8202C66.4725 86.3053 67.1533 87.0366 67.5589 88.0878L67.6634 88.3856L67.7454 88.6727C68.1078 90.0996 67.7727 91.3501 67.555 92.0009C67.3944 92.4808 67.1809 92.949 67.0013 93.3222C66.9809 93.5773 66.9589 93.8211 66.9329 94.0497C66.635 96.6698 65.9905 98.0166 65.4261 99.1454C64.9577 100.082 64.3623 101.282 63.1829 102.75C62.989 102.991 62.7683 103.253 62.5228 103.527C65.3169 103.089 68.6216 102.659 71.2073 102.244C74.7836 101.67 77.3782 101.072 78.6995 100.413C78.7223 100.329 78.7501 100.221 78.7767 100.085C79.1129 98.3571 79.142 94.8305 78.9329 92.5858C78.8381 91.5677 78.7139 91.0425 78.6058 90.7059C78.4909 90.3486 78.3509 90.0526 78.0013 89.3534C77.2621 87.8751 76.5847 86.5668 76.0247 85.8729C76.015 85.8609 76.0046 85.8505 75.9964 85.8407C75.9204 85.8187 75.7919 85.7852 75.5911 85.7499C75.2607 85.6918 74.7998 85.6352 74.1419 85.5858C72.5516 85.4665 70.7675 85.2882 68.929 85.2235Z" fill="inherit"/>
<path fill-rule="evenodd" clip-rule="evenodd" d="M78.2698 0.513556C84.2661 0.33559 92.2497 0.319557 101.471 0.429571C105.392 0.476358 108.006 0.770458 109.996 1.09852C110.959 1.25715 111.782 1.42561 112.395 1.54383C113.04 1.66827 113.468 1.74057 113.864 1.77625C116.647 2.02731 118.909 3.01034 120.662 3.95008C121.517 4.40831 122.326 4.89897 122.947 5.26649C123.621 5.66579 124.083 5.92593 124.47 6.10145C126.679 7.10333 128.021 8.89845 128.679 9.77137C130.042 11.5797 131.08 13.2938 131.905 14.6532C132.793 16.1177 133.32 16.9599 133.816 17.5263C135.137 19.0341 135.743 20.6712 136.064 22.245C136.228 23.0525 136.301 23.8828 136.353 24.4481C136.396 24.9142 136.428 25.2471 136.465 25.5145C137.956 25.5415 139.941 25.5971 142.295 25.7138C143.59 25.778 144.766 26.0254 145.835 26.5057C146.923 26.9945 147.694 27.6325 148.257 28.1903C150.01 29.9264 151.85 32.7062 153.577 35.3993C155.415 38.2649 157.305 41.3299 159.357 44.2421C160.787 46.2718 161.846 48.3461 162.743 50.2684C163.707 52.3328 164.34 53.8831 165.212 55.6268C166.223 57.6489 167.23 60.1676 167.973 63.3788C167.998 63.4868 168.019 63.5962 168.034 63.7059C168.31 65.6043 168.302 67.6684 168.302 69.4032C168.302 71.6123 166.511 73.4031 164.302 73.4032C162.093 73.403 160.302 71.6122 160.302 69.4032C160.302 67.6008 160.292 66.1975 160.137 65.0155C159.555 62.5623 158.799 60.6881 158.057 59.205C157.153 57.3966 156.244 55.2595 155.493 53.6512C154.677 51.9008 153.85 50.3152 152.817 48.8495C150.631 45.7482 148.578 42.4221 146.843 39.7177C144.998 36.8408 143.634 34.8704 142.628 33.8749C142.596 33.8432 142.574 33.8229 142.56 33.8104C142.555 33.8061 142.55 33.8022 142.547 33.7997C142.543 33.7979 142.536 33.7956 142.528 33.7929C142.508 33.7865 142.475 33.7763 142.426 33.7655C142.327 33.7436 142.158 33.7168 141.899 33.704C137.992 33.5104 135.159 33.491 134.017 33.4891C133.285 34.3051 132.223 34.8191 131.04 34.8192H130.52C130.175 34.8196 129.661 34.8204 128.99 34.8221C127.646 34.8256 125.668 34.8329 123.137 34.8466C118.074 34.874 110.796 34.9283 101.939 35.038C92.6483 35.153 87.8723 36.8644 83.4769 38.5409C81.644 39.24 79.4909 39.9837 77.3353 40.7264C76.6551 41.9636 75.3409 42.8025 73.8294 42.8026C73.0118 42.8026 72.205 42.8035 71.4163 42.8046C70.4475 43.1571 69.5242 43.5018 68.6712 43.8417C65.4227 45.1362 61.8359 46.8548 58.0843 48.5458C58.4599 48.6408 58.8772 48.7341 59.3509 48.8329C60.0056 48.9694 60.8516 49.135 61.6263 49.3143C64.1364 49.8954 69.8154 50.2775 76.9124 50.6434C83.7667 50.9968 91.6192 51.3266 97.888 51.8876C106.945 52.698 115.864 53.4489 124.426 54.5663C125.76 54.7403 127.552 54.7852 129.902 54.912C132.05 55.0279 134.608 55.2146 136.806 55.7518C141.252 56.8387 143.661 59.0611 145.43 61.0282L145.776 61.4179L145.87 61.5292C148.822 65.1552 150.83 68.1068 151.908 70.2616C152.432 71.3102 152.975 72.4452 153.486 74.7792L153.587 75.2616L153.623 75.4647C153.668 75.7626 153.677 76.0588 153.656 76.3485C158.483 76.6132 165.294 77.111 173.511 78.0497C175.62 78.2907 177.464 78.9552 178.975 80.0848C180.491 81.2182 181.438 82.6444 182.024 84.038C183.073 86.5363 183.076 89.4917 183.144 90.3202C183.452 94.107 184.233 98.1033 185.065 102.083C185.87 105.939 186.762 109.938 187.125 113.299C187.504 116.8 188.689 121.687 190.215 127.861C191.693 133.84 193.431 140.815 194.79 148.209C196.551 153.598 197.558 159.269 198.745 164.078C199.172 165.359 199.595 166.623 200.029 167.925C200.727 170.02 199.594 172.286 197.498 172.984C195.403 173.683 193.137 172.55 192.439 170.455C191.986 169.098 191.548 167.78 191.102 166.443C191.069 166.344 191.039 166.244 191.014 166.142C189.589 160.405 188.827 155.628 187.109 150.453C187.05 150.276 187.004 150.094 186.97 149.91C185.656 142.701 183.954 135.871 182.449 129.781C180.974 123.815 179.621 118.32 179.171 114.158C178.862 111.299 178.09 107.818 177.234 103.72C176.403 99.7435 175.524 95.3073 175.17 90.9696C175.088 89.9583 175.101 89.5628 175.004 88.7147C174.925 88.0221 174.805 87.5125 174.648 87.1376C174.506 86.8008 174.355 86.6202 174.184 86.4921C174.007 86.3602 173.575 86.109 172.603 85.9979C164.048 85.0208 157.067 84.5323 152.345 84.2889C151.876 84.2648 151.429 84.2431 151.005 84.2235V88.1708C151.005 96.2702 151.006 112.575 150.784 121.445C150.541 131.207 149.634 136.608 149.226 142.377C149.096 144.217 148.508 145.845 147.306 147.111C146.279 148.193 144.945 148.748 144.816 148.812C140.676 150.882 135.878 152.576 131.374 154.294C130.67 154.562 129.138 155.297 127.292 155.611C125.515 155.913 123.315 155.911 121.547 155.622C119.878 155.349 118.623 154.789 117.197 153.822C115.234 155.585 113.282 157.088 111.388 158.098C109.908 158.887 108.101 159.918 106.562 160.679C104.986 161.457 103.128 162.249 101.189 162.516C96.0907 163.215 89.6998 163.446 83.9661 163.365C78.3099 163.285 72.8891 162.897 69.8372 162.226C68.1934 161.865 66.4667 161.58 64.6468 161.291C62.8652 161.008 60.9633 160.717 59.1468 160.356C57.9484 160.118 56.6988 159.834 55.4525 159.466C55.1134 160.327 54.7166 161.333 54.3167 162.372C53.3626 164.852 52.2325 167.918 51.265 171.019C50.2027 174.424 49.8237 178.662 49.5755 183.338C49.3394 187.787 49.2227 192.796 48.5071 196.91C48.4727 197.108 48.4226 197.304 48.3587 197.495C48.0519 198.411 47.6597 199.802 47.4485 203.516C47.2304 207.353 47.2288 213.361 47.2288 219.748C47.2286 221.957 45.4378 223.748 43.2288 223.748C41.0198 223.748 39.229 221.957 39.2288 219.748C39.2288 213.469 39.227 207.182 39.4612 203.062C39.6871 199.09 40.1312 196.978 40.6663 195.293C41.2371 191.844 41.3344 187.678 41.5872 182.914C41.8341 178.263 42.2337 173.106 43.6282 168.637C44.6696 165.299 45.8683 162.051 46.8499 159.499C47.4775 157.868 47.9667 156.635 48.2991 155.792C47.571 155.224 46.6707 154.626 45.5374 153.912C44.289 153.126 42.7057 152.168 41.1068 151.111C37.8164 148.937 34.0548 146.094 30.4144 141.832C29.6322 140.916 28.9536 140.013 28.3597 138.775C27.8127 137.635 27.4013 136.341 26.9476 134.748C25.9657 131.301 24.6028 125.741 23.928 114.005C23.2669 102.505 22.8753 85.1646 23.4974 75.9139C23.832 70.9384 24.1109 67.5533 24.305 65.2499C24.5102 62.8145 24.5931 61.8587 24.5931 61.4208C24.5931 61.3747 24.5945 61.3288 24.596 61.2831C20.2992 61.2177 16.3451 61.1234 13.305 60.9862C10.8241 60.8743 8.9167 60.7311 7.46124 60.5565C6.07581 60.3903 4.8434 60.1687 3.86163 59.7987C3.16289 59.5353 0.792466 58.5175 0.569641 55.7636C0.476363 54.6091 0.856133 53.7211 1.08038 53.285C1.30538 52.8477 1.56985 52.4992 1.65167 52.3895C2.60028 51.1185 3.81528 49.93 5.50519 48.7977C9.30413 46.2526 14.4162 44.3411 19.2503 42.8016C21.0957 42.214 22.9564 41.6647 24.7513 41.1464L28.2923 40.1288C26.2238 39.975 24.5933 38.2493 24.5931 36.1415H28.5931C24.5931 36.1415 24.5931 36.1418 24.5931 36.1415V36.0878C24.5932 36.058 24.5936 36.0157 24.5941 35.9628C24.595 35.8564 24.5972 35.7033 24.6009 35.5067C24.6082 35.1131 24.6222 34.5421 24.6507 33.8114C24.7078 32.3497 24.8218 30.2444 25.0472 27.6288C25.2007 25.8479 25.8055 24.4019 26.6829 23.246C27.4867 22.1873 28.4418 21.5001 28.8333 21.205C32.5323 18.4171 37.3876 15.7311 48.722 9.1991C58.539 3.54166 65.0178 2.2207 65.7571 1.89246C66.526 1.55052 67.3988 1.36602 68.0882 1.24695C68.8563 1.11432 69.7553 1.00573 70.7444 0.914923C72.7275 0.732881 75.2774 0.602372 78.2698 0.513556ZM61.8548 61.4296H52.1956C47.335 61.4296 39.9638 61.4292 32.5911 61.372C32.5913 61.3882 32.5931 61.4045 32.5931 61.4208C32.5931 62.3 32.4572 63.7791 32.2767 65.9218C32.0849 68.1969 31.8104 71.5346 31.4798 76.4511C30.8919 85.1935 31.2583 102.135 31.9144 113.546C32.5568 124.72 33.8276 129.697 34.6419 132.557C35.0861 134.116 35.3437 134.838 35.5716 135.313C35.7526 135.691 35.956 136.002 36.4974 136.636C39.4868 140.136 42.5951 142.506 45.5169 144.436C47.0237 145.432 48.3827 146.25 49.8001 147.142C51.1493 147.992 52.5372 148.901 53.7562 149.916C55.1103 151.043 57.3434 151.841 60.7044 152.509C62.3315 152.832 64.0448 153.096 65.9017 153.391C67.7199 153.679 69.6559 153.996 71.554 154.413C73.7598 154.898 78.488 155.287 84.0784 155.366C89.5917 155.444 95.5473 155.214 100.102 154.59C100.722 154.505 101.636 154.189 103.02 153.506C104.441 152.804 105.785 152.018 107.624 151.038C109.95 149.798 112.987 146.998 116.797 142.966C120.7 138.835 122.4 134.543 124.66 128.915C127.01 123.067 127.916 117.305 129.787 110.023C130.117 108.325 130.415 106.606 130.685 104.763C129.93 104.923 129.141 105.023 128.307 105.095C125.43 105.34 120.817 105.339 117.904 105.102C114.904 104.859 112.85 104.306 111.162 102.635C110.548 102.026 110.082 101.362 109.833 101.016C109.519 100.577 109.426 100.461 109.358 100.391C109.321 100.354 109.212 100.258 108.844 100.012C108.79 99.9755 108.723 99.931 108.647 99.8807C107.312 99.8338 106.013 99.7011 104.931 99.4794C101.697 98.8169 100.109 97.3275 99.3636 96.7714C99.1189 96.5888 96.797 95.2894 95.8216 92.7919C95.1051 90.9571 94.8214 88.2397 95.5042 85.9725C95.8418 84.8516 96.2629 83.4203 96.9456 81.997C96.623 81.4202 96.4388 80.7556 96.4388 80.0477C96.4388 77.8386 98.2296 76.0477 100.439 76.0477H100.567C100.65 76.0478 100.772 76.0483 100.934 76.0487C101.258 76.0496 101.738 76.0511 102.364 76.0546C103.014 76.0582 103.823 76.064 104.781 76.0722C106.68 75.6785 109.991 74.8345 113.171 74.5097C116.546 74.165 120.708 74.2643 124.399 76.3768C124.419 76.3884 124.438 76.4013 124.458 76.413C125.444 76.4373 126.454 76.4605 127.488 76.4882C128.504 76.5154 129.428 76.5717 130.272 76.6581C131.307 74.9306 133.479 74.2387 135.326 75.0614L135.511 75.1503L135.988 75.4042C137.108 76.0352 138.272 76.9461 139.063 78.4804C139.831 79.97 140.021 81.658 140.131 83.1278C140.14 83.2503 140.144 83.3732 140.142 83.496C140.139 83.6857 140.133 83.8741 140.129 84.0614C140.608 85.2052 140.987 86.3904 141.324 87.619C142.025 90.1806 141.647 93.3605 140.479 96.0321C140.201 96.6681 139.867 97.2715 139.504 97.8417C139.063 103.31 138.426 107.518 137.62 111.659C137.605 111.738 137.588 111.816 137.568 111.893C135.91 118.321 134.701 125.383 132.084 131.897C129.98 137.135 127.888 142.588 123.237 147.778C124.109 147.871 125.189 147.853 125.951 147.724C126.766 147.585 126.979 147.408 128.523 146.819C133.332 144.985 137.563 143.495 141.239 141.657C141.245 141.654 141.251 141.65 141.257 141.647C141.729 135.096 142.548 130.814 142.786 121.246C143.004 112.501 143.005 96.3168 143.005 88.1708V80.0477C143.005 79.4869 143.121 78.9531 143.329 78.4686C143.448 77.7848 143.703 77.0659 144.151 76.33C144.704 76.1557 145.358 76.0574 145.44 76.0526C145.471 76.0513 145.52 76.0491 145.537 76.0487C145.546 76.0485 145.558 76.048 145.567 76.0477C145.442 75.5364 145.332 75.1798 145.237 74.9169C145.1 74.5415 144.971 74.277 144.752 73.8397C144.064 72.4625 142.491 70.0564 139.708 66.6327C138.407 65.154 137.316 64.1124 134.907 63.5233C133.512 63.1825 131.631 63.0168 129.471 62.9003C127.512 62.7946 125.126 62.7263 123.391 62.4999C115.03 61.4087 106.308 60.6736 97.1751 59.8563C91.1041 59.3131 83.4939 58.9933 76.5003 58.6327C70.9234 58.3451 65.4802 58.0239 61.8548 57.4813V61.4296ZM128.21 84.5214C128.184 84.8261 128.15 85.0902 128.119 85.3016C127.792 87.5424 127.077 89.0452 126.018 90.4511C125.555 91.0654 124.871 91.872 123.807 92.5936C124.18 93.2017 124.397 93.9167 124.397 94.6825C124.397 95.6726 124.036 96.5777 123.44 97.2763C124.984 97.2694 126.496 97.2204 127.626 97.1239C128.811 97.0227 129.25 96.897 129.444 96.8222C129.57 96.7732 129.735 96.6981 130.269 96.2518C130.765 95.8369 131.254 95.374 131.697 94.8954C131.871 92.2433 132.004 89.2629 132.089 85.8261C131.936 85.5706 131.776 85.3314 131.604 85.1034C131.58 85.0719 131.56 85.0458 131.543 85.0243C131.541 85.0234 131.539 85.0223 131.536 85.0214C131.209 84.8881 130.304 84.6318 128.21 84.5214ZM114.903 86.6093C114.921 86.6089 114.94 86.6086 114.958 86.6083C114.962 86.5969 114.966 86.5855 114.969 86.5741C114.946 86.586 114.924 86.5979 114.903 86.6093ZM50.1097 44.3358C46.0319 44.8108 41.0136 45.4699 35.0218 46.4833C33.081 47.0861 30.9132 47.7031 28.72 48.33C26.3958 48.9942 24.0121 49.6814 21.678 50.4247C19.0849 51.2505 16.6645 52.1132 14.5472 53.0292C23.8851 53.4043 40.825 53.4262 50.5989 53.4276C50.3807 53.1982 50.1714 52.9505 49.9749 52.6825C48.3017 50.4005 48.3899 47.4364 49.4329 45.3964C49.6334 45.0043 49.8634 44.6528 50.1097 44.3358ZM101.375 8.42859C92.1965 8.31909 84.3404 8.33652 78.5071 8.50965C75.585 8.59638 73.2216 8.72146 71.4759 8.88172C70.6011 8.96203 69.9312 9.0466 69.4495 9.12977C69.0193 9.20406 68.8846 9.25331 68.9261 9.23621C65.7126 10.6389 62.4733 10.5077 52.7161 16.1307C41.0349 22.8627 36.834 25.1929 33.6487 27.5936C33.4019 27.7797 33.2833 27.8709 33.1771 27.9638C33.1027 28.0288 33.0698 28.0649 33.0589 28.078C33.0528 28.0952 33.0298 28.1665 33.0169 28.3153C32.8033 30.7948 32.6975 32.775 32.6448 34.1239C32.6185 34.7977 32.6053 35.3144 32.5989 35.6561C32.5958 35.8266 32.5948 35.9545 32.5941 36.036C32.5937 36.0763 32.5932 36.1062 32.5931 36.1239V36.1415L32.5882 36.3466C32.526 37.5763 31.907 38.6584 30.9798 39.3495C31.6494 39.1511 32.2943 38.9578 32.9105 38.7645L33.1722 38.6923C33.2599 38.6712 33.3488 38.6527 33.4378 38.6376C40.7373 37.3968 46.6443 36.6655 51.1878 36.161C55.875 35.6406 58.7557 35.3929 60.4573 35.0907L60.6487 35.0614C60.7129 35.0532 60.7776 35.046 60.8421 35.0409C63.1085 34.8621 66.4485 34.8177 70.013 34.8065C71.1319 34.409 72.2694 34.0134 73.3851 33.6288C76.0424 32.7126 78.565 31.8525 80.6263 31.0663C85.544 29.1906 91.2902 27.1695 101.84 27.0389C110.718 26.9291 118.015 26.874 123.094 26.8466C125.396 26.8341 127.242 26.8277 128.574 26.8241C128.479 26.2054 128.426 25.6102 128.386 25.1776C128.326 24.528 128.287 24.1436 128.225 23.8407C128.093 23.193 127.948 22.9691 127.798 22.7977C126.744 21.5946 125.837 20.0736 125.066 18.8036C124.231 17.4283 123.383 16.0346 122.291 14.5868C121.972 14.1631 121.746 13.8859 121.531 13.6727C121.329 13.4732 121.211 13.4083 121.165 13.3876C120.335 13.011 119.533 12.5422 118.868 12.1483C118.15 11.7225 117.544 11.3549 116.883 11.0009C115.606 10.3162 114.428 9.85878 113.145 9.74305C112.323 9.66897 111.563 9.53095 110.88 9.3993C110.165 9.2614 109.516 9.12747 108.695 8.99207C107.117 8.73203 104.906 8.47073 101.375 8.42859Z" fill="inherit"/>
</svg>
